<?xml version="1.0" encoding="UTF-8"?>
<!-- Generator: visioncortex VTracer 0.6.3 -->
<svg version="1.1" xmlns="http://www.w3.org/2000/svg" width="1280" height="1280">
<path d="M0 0 C422.4 0 844.8 0 1280 0 C1280 422.4 1280 844.8 1280 1280 C857.6 1280 435.2 1280 0 1280 C0 857.6 0 435.2 0 0 Z " fill="#102D54" transform="translate(0,0)"/>
<path d="M0 0 C23.03 18.65 38.72 44.95 42.11 74.58 C44.39 97.26 40.13 120.77 26.2 139.29 C12.13 156.4 -6.99 169.17 -29.38 171.4 C-56.87 172.67 -81.48 168.93 -104.38 152.4 C-101.82 147.75 -98.57 143.84 -95.19 139.77 C-90.69 134.3 -86.38 128.75 -82.27 122.97 C-79.55 119.26 -76.63 115.73 -73.69 112.19 C-72.08 110.24 -70.49 108.28 -68.91 106.3 C-68.12 105.3 -67.32 104.3 -66.5 103.27 C-65.78 102.36 -65.07 101.45 -64.32 100.52 C-62.38 98.4 -62.38 98.4 -59.38 97.4 C-57.89 97.89 -57.89 97.89 -56.38 98.4 C-43.58 99.32 -43.58 99.32 -32.48 93.82 C-27.78 89.42 -25.64 86.1 -25.01 79.54 C-24.76 70.75 -25.06 63.78 -30.38 56.4 C-30.9 55.66 -31.42 54.92 -31.95 54.16 C-36.82 47.96 -42.75 45.02 -50.38 43.4 C-57.52 42.55 -62.97 44.36 -69.38 47.4 C-70.09 47.69 -70.81 47.98 -71.55 48.28 C-73.85 49.69 -74.35 50.93 -75.38 53.4 C-75.89 54.28 -75.89 54.28 -76.41 55.19 C-79.94 61.49 -81.42 67.46 -79.54 74.56 C-78.83 76.63 -78.08 78.69 -77.29 80.73 C-76.38 83.4 -76.38 83.4 -76.38 87.4 C-77.88 89.66 -77.88 89.66 -79.94 92.09 C-80.67 92.96 -81.4 93.84 -82.16 94.74 C-82.89 95.62 -83.62 96.5 -84.38 97.4 C-85.59 98.96 -86.8 100.52 -88 102.09 C-90.53 105.35 -93.16 108.49 -95.87 111.61 C-97.5 113.54 -99.03 115.52 -100.57 117.52 C-104.11 122.13 -107.86 126.56 -111.65 130.97 C-113.71 133.38 -115.61 135.75 -117.38 138.4 C-127.46 135.18 -133.8 124.01 -138.5 115.12 C-139.13 113.89 -139.76 112.64 -140.38 111.4 C-140.69 110.77 -141.01 110.14 -141.34 109.49 C-151.91 87.96 -155.89 62.6 -148.84 39.23 C-144.43 27.15 -139.1 15.96 -130.38 6.4 C-129.86 5.72 -129.35 5.04 -128.82 4.34 C-117.28 -10.49 -95 -19.14 -77.08 -22.16 C-49.42 -25.48 -21.87 -17.15 0 0 Z " fill="#FF6F76" transform="translate(613.37890625,469.6015625)"/>
<path d="M0 0 C0.95 0.51 1.89 1.01 2.87 1.54 C9.38 5.18 14.64 9.84 20 15 C20.9 15.84 21.8 16.67 22.72 17.53 C42.72 36.66 57.19 64.35 58.18 92.3 C58.37 101.06 57.89 109.41 56 118 C55.67 117.34 55.34 116.68 55 116 C53.98 115.64 53.98 115.64 52.95 115.27 C48.71 113.44 45.46 110.63 41.88 107.75 C35.27 102.53 28.6 97.42 21.81 92.44 C21.04 91.87 20.26 91.3 19.46 90.71 C18.72 90.16 17.97 89.62 17.21 89.06 C16.5 88.54 15.79 88.01 15.06 87.47 C13.72 86.51 12.35 85.59 10.95 84.72 C7.74 82.68 6.17 81.49 4.91 77.84 C4.77 76.69 4.64 75.55 4.5 74.38 C2.85 64.79 -1.57 57.13 -9.32 51.14 C-14.6 47.56 -19.81 45.21 -26.3 46.44 C-31.3 47.88 -34.31 49.35 -37 54 C-40.43 60.3 -40.56 66.05 -39 73 C-35.76 82.55 -29.72 88.12 -21.06 92.94 C-16.32 95.15 -12.18 95.96 -7 95 C-4.98 94.05 -2.97 93.05 -1 92 C3.51 92.62 6.62 95.48 10.12 98.19 C10.82 98.72 11.51 99.24 12.23 99.79 C18.42 104.51 24.55 109.31 30.67 114.11 C35.42 117.82 40.22 121.36 45.25 124.67 C47 126 47 126 49 129 C48.67 137.02 42.53 141.54 37.13 146.84 C25.48 157.44 10.21 159.69 -5 159 C-27.19 157.19 -44.16 147.82 -61 134 C-61.82 133.33 -62.65 132.66 -63.5 131.97 C-69.45 126.93 -74.25 121.17 -79 115 C-79.58 114.28 -80.17 113.56 -80.77 112.81 C-96.23 92.53 -104.09 65.1 -100.7 39.75 C-97.76 23.45 -89.78 7.69 -76 -2 C-51.04 -17.02 -24.47 -13.82 0 0 Z " fill="#FF6F76" transform="translate(786,455)"/>
<path d="M0 0 C19.91 14.4 36.85 35.12 41.46 59.69 C41.69 60.84 41.92 62 42.15 63.19 C43.65 79.98 41.02 94.53 30.66 108.09 C19.75 121.03 5.14 128.5 -11.54 130.69 C-27.4 131.91 -43.38 131.88 -58.54 126.69 C-59.17 126.47 -59.8 126.26 -60.46 126.04 C-80.37 119.15 -99.25 107.13 -112.54 90.69 C-113.23 89.86 -113.92 89.03 -114.64 88.18 C-126.05 73.73 -133.31 54.19 -131.54 35.69 C-130.16 26.89 -126.79 19.46 -122.54 11.69 C-119.35 12.33 -116.99 13.45 -114.23 15.13 C-112.99 15.87 -112.99 15.87 -111.73 16.64 C-110.86 17.17 -109.99 17.7 -109.1 18.25 C-108.2 18.8 -107.3 19.34 -106.37 19.9 C-100.47 23.49 -94.59 27.1 -88.71 30.74 C-86.31 32.21 -83.9 33.67 -81.48 35.11 C-80.79 35.51 -80.11 35.92 -79.4 36.34 C-78.06 37.14 -76.72 37.93 -75.38 38.72 C-72.85 40.23 -70.63 41.59 -68.54 43.69 C-68.18 45.59 -67.89 47.51 -67.66 49.44 C-66.4 57.48 -62.96 61.96 -56.79 67.07 C-48.66 72.9 -40.34 73.65 -30.54 72.69 C-26.48 71.86 -24.09 70.22 -21.1 67.31 C-18.49 61.25 -18.37 54.59 -20.27 48.24 C-23.63 41.03 -29.5 36.17 -36.54 32.69 C-41.79 30.79 -46.5 30.46 -52 31.3 C-53.26 31.49 -53.26 31.49 -54.54 31.69 C-55.14 31.86 -55.75 32.03 -56.38 32.21 C-61.76 33.41 -64.8 32.37 -69.54 29.6 C-71.74 28.19 -73.92 26.77 -76.1 25.31 C-77.83 24.19 -79.57 23.08 -81.31 21.97 C-82.45 21.23 -83.6 20.5 -84.74 19.76 C-89.28 16.82 -93.91 14.1 -98.66 11.5 C-103.72 8.71 -108.68 5.82 -113.54 2.69 C-110.38 -5.12 -100.72 -9.04 -93.41 -12.18 C-62.72 -24.23 -27.23 -18.53 0 0 Z " fill="#FF6F76" transform="translate(565.53515625,276.3125)"/>
<path d="M0 0 C1.45 0.67 1.45 0.67 2.93 1.36 C18.44 8.88 18.44 8.88 21.43 15.4 C21.68 16.16 21.93 16.91 22.19 17.69 C16.7 22.74 11.18 27.63 5.21 32.11 C3.36 33.55 1.7 35.08 0 36.69 C-2.81 38.69 -2.81 38.69 -5.81 38.62 C-7.81 38 -9.79 37.34 -11.75 36.62 C-16.75 35.09 -20.51 35.29 -25.5 36.81 C-29.42 39.03 -30.89 40.62 -32.81 44.69 C-33.66 51.15 -32.32 56.19 -28.81 61.69 C-23.5 67.78 -16.86 72.12 -8.75 73.03 C-3.13 73.2 0.53 73.1 5.19 69.69 C8.02 65.44 7.61 61.67 7.19 56.69 C6.57 55 5.91 53.33 5.19 51.69 C5.61 48.16 6.87 46.73 9.56 44.5 C10.28 43.9 11 43.3 11.73 42.68 C12.54 42.02 13.35 41.37 14.19 40.69 C15.1 39.94 16.01 39.18 16.95 38.41 C18.84 36.86 20.74 35.32 22.64 33.78 C24.69 32.09 26.66 30.35 28.62 28.56 C31.19 26.69 31.19 26.69 33.05 26.69 C36.32 28.22 38 30.92 40 33.81 C40.65 34.74 40.65 34.74 41.32 35.69 C50.49 49.17 56.34 64.1 56.44 80.44 C56.47 81.72 56.47 81.72 56.5 83.03 C56.57 94.54 51.93 105.28 44.23 113.87 C33.07 124.11 19.15 126.07 4.48 125.9 C-24.15 124.03 -48.15 108.56 -67.29 88.04 C-81.72 71.18 -89 51.98 -87.81 29.69 C-86.26 17.78 -80.56 8.1 -71.32 0.47 C-48.5 -15.76 -23.7 -11.09 0 0 Z " fill="#FF6F76" transform="translate(723.8125,282.3125)"/>
<path d="M0 0 C1.81 2.72 3.18 5.44 4.56 8.39 C8.44 16.55 12.83 23.34 19 30 C19.69 30.77 20.37 31.53 21.08 32.32 C36.21 48.4 56.55 59.12 77.99 63.56 C81.04 64.23 84.01 65.11 87 66 C87 66.33 87 66.66 87 67 C86.27 67.09 85.55 67.17 84.8 67.26 C67.78 69.64 55.39 77.37 45 91 C34.99 106.64 34.35 123.05 35 141 C33.06 138.52 31.43 136.09 30.02 133.28 C29.66 132.58 29.31 131.88 28.94 131.16 C28.57 130.43 28.2 129.69 27.81 128.94 C21.94 117.66 14.71 108.25 6 99 C5.45 98.39 4.9 97.77 4.33 97.14 C-10.73 80.96 -34.28 70.81 -56 69 C-55.67 68.01 -55.34 67.02 -55 66 C-52.5 65.24 -50.11 64.65 -47.56 64.12 C-33.99 61 -20.29 54.12 -12.3 42.21 C-4.96 29.72 -1.82 18.31 -1.21 3.96 C-1 1 -1 1 0 0 Z " fill="#FF6F76" transform="translate(634,365)"/>
<path d="M0 0 C8.22 5.63 12.61 14.28 14.62 23.79 C15.38 28.58 15.37 33.36 15.34 38.2 C15.34 39.79 15.34 39.79 15.33 41.42 C15.13 54.99 12.51 63.87 3.01 73.88 C-3.72 79.04 -13.89 78.34 -21.97 77.39 C-28.89 75.45 -34.19 71.5 -37.97 65.39 C-45.4 50.77 -45.72 34.66 -41.24 19.11 C-38.43 10.9 -34.66 4.4 -26.86 0.27 C-18.14 -3.76 -8.7 -4.47 0 0 Z " fill="#FF6F76" transform="translate(589.96875,750.609375)"/>
<path d="M0 0 C7.73 4.41 12.49 11.35 15.21 19.76 C16.74 27.88 16.76 37.59 12.62 44.94 C8.25 50.86 3.27 56.75 -4.38 57.94 C-15.61 58.65 -22.61 57.64 -31.52 50.67 C-37.85 44.77 -40.38 37.2 -40.75 28.69 C-40.51 19.1 -37.14 11.71 -30.54 4.82 C-22.1 -2.52 -10.25 -4.75 0 0 Z " fill="#FF6F76" transform="translate(210.375,770.0625)"/>
<path d="M0 0 C0.99 0.66 1.98 1.32 3 2 C3 2.66 3 3.32 3 4 C4.74 4.87 4.74 4.87 7 5 C9.66 3.17 9.66 3.17 12 1 C15.74 -0.87 20.34 -0.45 24.31 0.62 C27.78 3.45 29.14 7.73 30 12 C30.08 13.59 30.12 15.18 30.11 16.77 C30.11 17.71 30.11 18.65 30.11 19.62 C30.11 20.63 30.1 21.63 30.1 22.67 C30.1 23.71 30.09 24.75 30.09 25.82 C30.09 29.13 30.08 32.44 30.06 35.75 C30.06 38 30.05 40.24 30.05 42.49 C30.04 47.99 30.02 53.5 30 59 C28.02 59.03 26.04 59.05 24.06 59.06 C22.96 59.07 21.86 59.09 20.72 59.1 C18 59 18 59 17 58 C16.88 56.59 16.82 55.17 16.79 53.76 C16.76 52.4 16.76 52.4 16.73 51.03 C16.72 50.05 16.7 49.07 16.68 48.06 C16.66 47.06 16.64 46.06 16.62 45.04 C16.56 41.84 16.5 38.64 16.44 35.44 C16.39 33.27 16.35 31.11 16.31 28.95 C16.2 23.63 16.1 18.32 16 13 C15.01 12.67 14.02 12.34 13 12 C9.99 14.19 9.22 16.81 8.39 20.34 C7.52 26.22 7.84 32.2 7.94 38.12 C7.97 40.79 8 43.46 8.03 46.13 C8.05 47.89 8.05 47.89 8.08 49.69 C8 52.89 7.61 55.86 7 59 C5.19 59.03 3.38 59.05 1.56 59.06 C0.55 59.07 -0.46 59.09 -1.5 59.1 C-4 59 -4 59 -5 58 C-5.11 56.6 -5.16 55.19 -5.17 53.79 C-5.19 52.89 -5.2 52 -5.21 51.08 C-5.22 50.1 -5.24 49.13 -5.25 48.13 C-5.28 46.09 -5.31 44.05 -5.35 42.01 C-5.39 38.78 -5.44 35.55 -5.48 32.32 C-5.52 29.22 -5.57 26.11 -5.62 23 C-5.63 22.03 -5.64 21.06 -5.65 20.06 C-5.66 19.16 -5.68 18.27 -5.7 17.34 C-5.71 16.55 -5.72 15.76 -5.73 14.94 C-5.83 12.76 -5.83 12.76 -8 11 C-11.01 13.81 -12.81 15.65 -13.16 19.92 C-13.17 20.64 -13.19 21.36 -13.21 22.1 C-13.23 22.92 -13.25 23.75 -13.27 24.59 C-13.29 25.91 -13.29 25.91 -13.32 27.26 C-13.34 28.17 -13.36 29.07 -13.38 30.01 C-13.44 32.9 -13.5 35.79 -13.56 38.69 C-13.61 40.65 -13.65 42.61 -13.69 44.57 C-13.8 49.38 -13.9 54.19 -14 59 C-15.98 59.03 -17.96 59.05 -19.94 59.06 C-21.04 59.07 -22.14 59.09 -23.28 59.1 C-26 59 -26 59 -27 58 C-27.1 56.29 -27.14 54.58 -27.15 52.87 C-27.15 51.77 -27.16 50.68 -27.16 49.55 C-27.17 48.36 -27.17 47.17 -27.17 45.94 C-27.17 44.73 -27.17 43.51 -27.18 42.26 C-27.18 39.69 -27.19 37.11 -27.19 34.54 C-27.19 30.58 -27.21 26.63 -27.22 22.68 C-27.23 20.18 -27.23 17.69 -27.23 15.19 C-27.24 14 -27.24 12.81 -27.25 11.59 C-27.25 9.94 -27.25 9.94 -27.24 8.26 C-27.24 7.29 -27.25 6.32 -27.25 5.32 C-27 3 -27 3 -25 1 C-22.91 0.77 -22.91 0.77 -20.5 0.81 C-19.31 0.82 -19.31 0.82 -18.09 0.83 C-16 1 -16 1 -14 2 C-14 2.66 -14 3.32 -14 4 C-12.48 3.01 -12.48 3.01 -10.94 2 C-7.19 -0.14 -4.35 -0.5 0 0 Z " fill="#FF6F76" transform="translate(260,768)"/>
<path d="M0 0 C5.33 3.8 8.19 8.02 9.87 14.33 C10.17 17.19 10.38 19.97 10.49 22.83 C10.53 23.64 10.57 24.45 10.6 25.28 C10.88 32.01 10.97 38.73 10.99 45.46 C11 46.42 11 47.39 11.01 48.38 C11 49.28 11 50.17 11 51.09 C11 51.89 11 52.68 11 53.5 C10.87 55.33 10.87 55.33 9.87 56.33 C7.77 56.46 5.66 56.51 3.55 56.52 C2.4 56.53 1.25 56.55 0.07 56.56 C-3.03 56.34 -4.45 55.7 -7.13 54.33 C-8.69 55.08 -10.26 55.83 -11.82 56.58 C-18.27 58.68 -26.51 58.53 -32.7 55.64 C-36.99 53.05 -40.52 50.18 -42.13 45.33 C-42.94 38.74 -41.03 33.59 -37.13 28.33 C-26.99 20.24 -16.68 19.15 -4.13 19.33 C-6.32 13.88 -6.32 13.88 -10.32 9.77 C-18.12 8.56 -24.2 10.92 -31.13 14.33 C-33.44 12.35 -35.75 10.37 -38.13 8.33 C-37.13 4.33 -37.13 4.33 -35.53 2.92 C-34.86 2.52 -34.2 2.12 -33.51 1.71 C-32.86 1.3 -32.2 0.9 -31.53 0.48 C-22.13 -4.02 -9.39 -5.01 0 0 Z " fill="#FE6E75" transform="translate(1094.1328125,770.66796875)"/>
<path d="M0 0 C4.46 3.62 7.29 8.3 9.09 13.7 C9.18 15.1 9.21 16.5 9.21 17.9 C9.21 18.74 9.21 19.58 9.21 20.44 C9.2 21.35 9.2 22.25 9.19 23.18 C9.19 24.11 9.19 25.04 9.19 25.99 C9.18 28.96 9.17 31.92 9.16 34.89 C9.15 36.9 9.15 38.91 9.14 40.92 C9.13 45.84 9.11 50.77 9.09 55.7 C6.82 55.78 4.55 55.84 2.28 55.89 C0.38 55.94 0.38 55.94 -1.55 55.99 C-4.91 55.7 -4.91 55.7 -6.86 54.19 C-7.2 53.7 -7.55 53.21 -7.91 52.7 C-8.8 53.41 -8.8 53.41 -9.72 54.14 C-15.26 58.09 -22.41 57.21 -28.91 56.7 C-34.7 55.2 -38.65 52.85 -41.91 47.7 C-44 43.51 -43.55 38.69 -42.14 34.32 C-38.23 26.19 -31.06 22.75 -22.91 19.7 C-17 18.26 -10.94 18.61 -4.91 18.7 C-5.57 17.59 -6.23 16.47 -6.91 15.32 C-8.91 11.95 -8.91 11.95 -8.91 9.7 C-16.14 8.43 -21.14 8.59 -27.81 11.79 C-29.91 12.7 -29.91 12.7 -32.91 12.7 C-34.73 11.39 -34.73 11.39 -36.59 9.7 C-37.22 9.14 -37.84 8.59 -38.48 8.01 C-38.95 7.58 -39.42 7.15 -39.91 6.7 C-36.28 1.02 -31.27 -0.91 -25.07 -2.89 C-16.62 -4.5 -7.54 -4.38 0 0 Z " fill="#FE6E75" transform="translate(339.90625,771.30078125)"/>
<path d="M0 0 C1.08 0.01 2.16 0.03 3.28 0.04 C4.9 0.05 4.9 0.05 6.56 0.06 C9.21 0.23 9.21 0.23 10.21 1.23 C10.36 4.31 10.45 7.37 10.5 10.45 C10.52 11.83 10.52 11.83 10.55 13.25 C10.61 16.22 10.66 19.2 10.71 22.17 C10.78 26.07 10.86 29.98 10.93 33.88 C10.95 34.79 10.96 35.69 10.97 36.63 C11 37.88 11 37.88 11.03 39.16 C11.04 39.9 11.05 40.64 11.06 41.4 C11.11 43.33 11.11 43.33 12.21 45.23 C12.77 44.66 13.32 44.09 13.9 43.5 C16.41 40.92 18.94 38.36 21.46 35.79 C22.34 34.9 23.21 34 24.11 33.07 C24.95 32.22 25.8 31.36 26.67 30.48 C27.83 29.3 27.83 29.3 29.02 28.09 C31.23 26.22 32.38 25.55 35.21 25.23 C37.47 25.47 39.73 25.79 41.96 26.17 C43.72 26.46 43.72 26.46 45.51 26.76 C46.4 26.91 47.3 27.07 48.21 27.23 C40.88 34.56 33.55 41.9 26.21 49.23 C28.35 53.91 31.04 57.77 34.28 61.73 C38.29 66.74 42.17 71.82 45.9 77.04 C46.34 77.65 46.77 78.25 47.22 78.88 C50.21 83.1 50.21 83.1 50.21 84.23 C36.37 85.43 36.37 85.43 32.02 83.01 C30.15 80.87 28.73 78.63 27.21 76.23 C25.65 74.12 24.06 72.03 22.47 69.95 C20.02 66.73 17.61 63.48 15.21 60.23 C12.1 60.88 12.1 60.88 11.21 63.23 C11.06 64.82 10.97 66.42 10.9 68.02 C10.86 68.96 10.81 69.9 10.77 70.87 C10.71 72.35 10.71 72.35 10.65 73.86 C10.61 74.85 10.57 75.84 10.52 76.86 C10.42 79.32 10.31 81.77 10.21 84.23 C7.9 84.26 5.59 84.28 3.28 84.29 C1.99 84.3 0.7 84.32 -0.62 84.33 C-3.79 84.23 -3.79 84.23 -4.79 83.23 C-4.89 80.72 -4.93 78.23 -4.93 75.71 C-4.93 74.93 -4.94 74.14 -4.94 73.33 C-4.95 70.71 -4.95 68.1 -4.95 65.48 C-4.96 63.67 -4.96 61.86 -4.96 60.05 C-4.97 56.26 -4.97 52.46 -4.97 48.66 C-4.97 43.78 -4.98 38.9 -5 34.03 C-5.01 30.29 -5.01 26.55 -5.01 22.81 C-5.02 21.01 -5.02 19.21 -5.03 17.41 C-5.04 14.9 -5.03 12.39 -5.03 9.88 C-5.03 9.13 -5.04 8.38 -5.05 7.61 C-5 0.41 -5 0.41 0 0 Z " fill="#FF6F76" transform="translate(1121.78515625,742.76953125)"/>
<path d="M0 0 C7.2 5.04 10.34 12.09 12.07 20.45 C12.07 24.08 12.07 27.71 12.07 31.45 C-0.14 31.78 -12.35 32.11 -24.93 32.45 C-26.31 36.26 -26.31 36.26 -24.87 39.01 C-21.61 43.11 -18.15 44.19 -13.12 45.26 C-6.89 45.86 -1.45 44.21 4.07 41.45 C6.05 43.76 8.03 46.07 10.07 48.45 C6.42 53.65 2.28 56.23 -3.93 57.45 C-15.92 58.23 -24.58 57.15 -33.98 49.42 C-40.07 43.26 -41.21 35.72 -41.25 27.36 C-41.09 18.07 -37.38 9.9 -30.8 3.32 C-21.31 -2.87 -10.5 -5.36 0 0 Z " fill="#FF6F76" transform="translate(715.9296875,770.55078125)"/>
<path d="M0 0 C1.15 0.02 1.15 0.02 2.33 0.04 C8.77 0.22 13.72 0.58 18.73 5.11 C26.52 13.4 27.79 21.21 27.81 32.38 C27.36 40.02 25.54 46.06 19.81 51.38 C15.14 54.41 10.27 56.5 4.65 56.51 C3.86 56.51 3.07 56.51 2.25 56.51 C1.01 56.51 1.01 56.51 -0.25 56.5 C-1.49 56.51 -1.49 56.51 -2.76 56.51 C-3.95 56.51 -3.95 56.51 -5.16 56.51 C-5.88 56.51 -6.61 56.51 -7.36 56.5 C-9.19 56.38 -9.19 56.38 -11.19 55.38 C-11.26 48.02 -11.32 40.67 -11.35 33.32 C-11.37 30.82 -11.39 28.32 -11.41 25.82 C-11.45 22.23 -11.47 18.63 -11.48 15.04 C-11.5 13.36 -11.5 13.36 -11.53 11.64 C-11.53 10.08 -11.53 10.08 -11.53 8.49 C-11.53 7.57 -11.54 6.65 -11.55 5.71 C-11.19 3.38 -11.19 3.38 -9.9 1.58 C-6.94 -0.5 -3.48 -0.07 0 0 Z " fill="#FF6F76" transform="translate(881.1875,945.625)"/>
<path d="M0 0 C6.06 5.65 9.49 11.26 9.83 19.64 C9.87 22.06 9.86 24.48 9.85 26.9 C9.85 27.78 9.84 28.66 9.84 29.56 C9.84 32.35 9.83 35.15 9.81 37.94 C9.81 39.84 9.8 41.74 9.8 43.64 C9.79 48.28 9.77 52.92 9.75 57.56 C7.63 57.59 5.5 57.61 3.38 57.62 C2.19 57.64 1.01 57.65 -0.21 57.66 C-3.25 57.56 -3.25 57.56 -5.25 56.56 C-5.28 54.74 -5.28 54.74 -5.31 52.88 C-5.39 48.36 -5.47 43.84 -5.57 39.32 C-5.61 37.37 -5.64 35.41 -5.67 33.46 C-5.72 30.64 -5.78 27.83 -5.84 25.02 C-5.85 24.15 -5.86 23.28 -5.87 22.38 C-5.98 18.01 -6.22 14.54 -8.25 10.56 C-13.19 10.16 -16.39 10.75 -20.67 13 C-25.39 17.66 -25.71 23.89 -25.76 30.12 C-25.78 30.91 -25.8 31.7 -25.82 32.51 C-25.87 35.01 -25.9 37.5 -25.94 40 C-25.97 41.7 -26.01 43.4 -26.04 45.11 C-26.13 49.26 -26.19 53.41 -26.25 57.56 C-28.37 57.59 -30.5 57.61 -32.62 57.62 C-33.81 57.64 -34.99 57.65 -36.21 57.66 C-39.25 57.56 -39.25 57.56 -41.25 56.56 C-41.33 48.93 -41.38 41.29 -41.41 33.66 C-41.43 31.06 -41.45 28.46 -41.48 25.86 C-41.51 22.13 -41.53 18.4 -41.54 14.67 C-41.56 13.5 -41.57 12.34 -41.59 11.14 C-41.59 10.05 -41.59 8.97 -41.59 7.86 C-41.6 6.91 -41.6 5.95 -41.61 4.97 C-41.25 2.56 -41.25 2.56 -39.9 0.75 C-37.46 -1 -35.52 -0.73 -32.56 -0.62 C-31.57 -0.6 -30.57 -0.57 -29.55 -0.54 C-28.41 -0.49 -28.41 -0.49 -27.25 -0.44 C-26.26 1.54 -25.27 3.52 -24.25 5.56 C-23.55 4.96 -22.85 4.37 -22.12 3.75 C-15.18 -1.53 -8.26 -3.65 0 0 Z " fill="#FF6F76" transform="translate(843.25,769.4375)"/>
<path d="M0 0 C1.81 0.01 1.81 0.01 3.66 0.03 C5.56 0.07 5.56 0.07 7.49 0.11 C9.4 0.13 9.4 0.13 11.35 0.15 C14.5 0.18 17.65 0.23 20.8 0.29 C22.23 3.16 21.97 5.65 22.01 8.85 C22.02 9.53 22.03 10.2 22.04 10.89 C22.07 13.12 22.09 15.35 22.12 17.58 C22.14 19.13 22.16 20.67 22.18 22.21 C22.24 26.28 22.28 30.35 22.33 34.42 C22.38 38.57 22.44 42.71 22.49 46.86 C22.6 55.01 22.7 63.15 22.8 71.29 C24.28 71.37 24.28 71.37 25.79 71.44 C27.07 71.52 28.36 71.59 29.68 71.67 C30.95 71.74 32.23 71.81 33.54 71.88 C36.8 72.29 36.8 72.29 38.8 74.29 C39.03 76.42 39.03 76.42 38.99 78.86 C38.98 79.66 38.98 80.47 38.97 81.3 C38.8 83.29 38.8 83.29 37.8 84.29 C36.36 84.39 34.92 84.42 33.48 84.42 C32.56 84.43 31.65 84.43 30.7 84.43 C29.7 84.43 28.7 84.43 27.68 84.43 C26.66 84.43 25.64 84.43 24.59 84.43 C22.44 84.43 20.28 84.43 18.13 84.42 C14.82 84.42 11.5 84.42 8.19 84.43 C6.1 84.43 4.01 84.43 1.93 84.43 C0.43 84.43 0.43 84.43 -1.1 84.43 C-2.02 84.43 -2.93 84.43 -3.88 84.42 C-4.69 84.42 -5.5 84.42 -6.34 84.42 C-8.2 84.29 -8.2 84.29 -9.2 83.29 C-9.37 81.3 -9.37 81.3 -9.39 78.86 C-9.4 78.05 -9.42 77.25 -9.43 76.42 C-9.2 74.29 -9.2 74.29 -7.2 72.29 C-2.58 72.29 2.04 72.29 6.8 72.29 C6.47 52.82 6.14 33.35 5.8 13.29 C1.51 12.96 -2.78 12.63 -7.2 12.29 C-7.86 11.96 -8.52 11.63 -9.2 11.29 C-9.57 3.82 -9.57 3.82 -8.07 1.68 C-5.37 -0.33 -3.34 -0.05 0 0 Z " fill="#FF6F76" transform="translate(624.19921875,742.70703125)"/>
<path d="M0 0 C0.79 0 1.58 0 2.4 0 C3.75 -0 3.75 -0 5.12 -0.01 C6.09 0 7.06 0.01 8.06 0.02 C9.06 0.02 10.05 0.02 11.07 0.02 C13.18 0.02 15.28 0.03 17.38 0.04 C20.61 0.06 23.84 0.06 27.07 0.06 C29.11 0.07 31.15 0.07 33.19 0.08 C34.16 0.08 35.13 0.08 36.13 0.08 C37.03 0.09 37.92 0.1 38.85 0.1 C39.64 0.11 40.43 0.11 41.24 0.11 C43.06 0.25 43.06 0.25 44.06 1.25 C44.98 4.78 44.94 7.71 44.06 11.25 C41.24 15.14 37.95 18.39 34.53 21.75 C32.31 24.01 30.35 26.46 28.37 28.93 C24.91 33.25 21.29 37.35 17.49 41.37 C15.75 43.25 15.75 43.25 16.06 46.25 C26.29 46.25 36.52 46.25 47.06 46.25 C47.06 50.21 47.06 54.17 47.06 58.25 C39.67 58.27 32.28 58.29 24.9 58.3 C22.38 58.31 19.87 58.31 17.35 58.32 C13.74 58.33 10.14 58.34 6.53 58.34 C4.83 58.35 4.83 58.35 3.1 58.36 C2.06 58.36 1.02 58.36 -0.06 58.36 C-1.44 58.36 -1.44 58.36 -2.85 58.37 C-4.94 58.25 -4.94 58.25 -5.94 57.25 C-6.69 53.32 -6.63 51.34 -4.47 47.91 C-2.38 45.27 -0.2 42.75 2.06 40.25 C2.79 39.43 3.52 38.61 4.28 37.77 C5.76 36.12 7.26 34.47 8.76 32.83 C11.94 29.26 14.93 25.53 17.92 21.79 C20.16 19.12 22.56 16.68 25.06 14.25 C22.38 12.91 20.21 13.05 17.21 12.97 C15.47 12.91 15.47 12.91 13.69 12.85 C11.22 12.78 8.76 12.71 6.29 12.64 C5.13 12.6 3.97 12.57 2.77 12.53 C1.7 12.5 0.63 12.47 -0.47 12.44 C-2.94 12.25 -2.94 12.25 -3.94 11.25 C-4.11 9.25 -4.11 9.25 -4.13 6.81 C-4.14 6.01 -4.16 5.2 -4.17 4.38 C-3.86 1.47 -2.94 0.37 0 0 Z " fill="#FF6F76" transform="translate(995.9421539306641,768.7527618408203)"/>
<path d="M0 0 C2.75 2.5 2.75 2.5 4 5 C4.13 9.13 0.65 12.16 -2 15 C-2.66 15 -3.32 15 -4 15 C-4 14.34 -4 13.68 -4 13 C-4.66 13 -5.32 13 -6 13 C-6.41 12.55 -6.82 12.09 -7.25 11.62 C-10.54 8.57 -14.19 8.06 -18.56 7.75 C-21.9 7.99 -24.12 8.3 -27 10 C-27.66 12.03 -27.66 12.03 -28 14 C-23.24 16.61 -18.73 18.45 -13.5 19.94 C-6.6 21.99 -1.54 24.4 3.5 29.56 C5.77 34.76 6.07 39.43 5 45 C2.51 49.71 -0.84 52.31 -5.38 55 C-15.24 57.96 -28.61 57.06 -38 53 C-40.56 51.49 -42.69 49.9 -45 48 C-44.42 43.25 -42.45 40.03 -40 36 C-39.01 36 -38.02 36 -37 36 C-35.67 37.33 -34.33 38.67 -33 40 C-27.95 43.17 -23.95 43.41 -18.19 43.25 C-17.02 43.24 -17.02 43.24 -15.84 43.23 C-12.11 43.52 -12.11 43.52 -9 42 C-8.96 39.67 -8.96 37.33 -9 35 C-10.24 34.59 -11.48 34.17 -12.75 33.75 C-13.57 33.47 -14.39 33.2 -15.23 32.91 C-17.13 32.29 -19.04 31.69 -20.95 31.12 C-28.73 28.74 -35.63 25.88 -41.06 19.62 C-42.68 15.09 -42.9 11.3 -41.16 6.85 C-37.86 0.87 -33.53 -1.57 -27.16 -3.58 C-17.9 -5.38 -8.33 -4.51 0 0 Z " fill="#FF6F76" transform="translate(407,772)"/>
<path d="M0 0 C0.77 0 1.55 0 2.35 0 C3.66 -0 3.66 -0 5.01 -0.01 C6.43 0.01 6.43 0.01 7.88 0.02 C8.85 0.02 9.82 0.02 10.82 0.02 C12.88 0.02 14.94 0.03 16.99 0.04 C20.15 0.06 23.31 0.06 26.46 0.06 C28.46 0.07 30.45 0.07 32.44 0.08 C33.87 0.08 33.87 0.08 35.33 0.08 C36.2 0.09 37.07 0.1 37.97 0.1 C39.14 0.11 39.14 0.11 40.32 0.11 C42.1 0.25 42.1 0.25 43.1 1.25 C44.13 4.81 44.02 7.67 43.1 11.25 C40.25 15.82 36.35 19.65 32.67 23.55 C30.42 25.98 28.35 28.54 26.28 31.12 C23.06 35.1 19.74 38.98 16.31 42.79 C14.99 44.06 14.99 44.06 15.1 45.25 C16.45 45.28 16.45 45.28 17.83 45.32 C21.18 45.42 24.52 45.52 27.86 45.62 C29.31 45.66 30.75 45.7 32.2 45.74 C34.28 45.8 36.36 45.87 38.44 45.93 C39.69 45.97 40.94 46 42.23 46.04 C45.1 46.25 45.1 46.25 46.1 47.25 C46.17 49.1 46.18 50.96 46.16 52.81 C46.15 53.82 46.14 54.83 46.13 55.88 C46.12 56.66 46.11 57.44 46.1 58.25 C38.71 58.27 31.32 58.29 23.93 58.3 C21.42 58.31 18.9 58.31 16.39 58.32 C12.78 58.33 9.18 58.34 5.57 58.34 C3.87 58.35 3.87 58.35 2.14 58.36 C1.1 58.36 0.06 58.36 -1.02 58.36 C-2.4 58.36 -2.4 58.36 -3.81 58.37 C-5.9 58.25 -5.9 58.25 -6.9 57.25 C-7.53 54.14 -7.39 52.05 -5.73 49.31 C-3.86 46.88 -1.9 44.57 0.1 42.25 C0.96 41.21 1.83 40.17 2.69 39.13 C7.71 33.12 12.84 27.24 18.12 21.47 C20.2 19.13 22.16 16.71 24.1 14.25 C22.33 12.48 19.75 13.03 17.35 12.97 C15.6 12.91 15.6 12.91 13.81 12.85 C12.59 12.82 11.36 12.78 10.1 12.75 C7.68 12.68 5.26 12.61 2.85 12.53 C1.77 12.5 0.69 12.47 -0.42 12.44 C-2.9 12.25 -2.9 12.25 -3.9 11.25 C-4.07 9.25 -4.07 9.25 -4.09 6.81 C-4.11 6.01 -4.12 5.2 -4.13 4.38 C-3.82 1.5 -2.92 0.38 0 0 Z " fill="#FE6E75" transform="translate(429.90419006347656,768.7527618408203)"/>
<path d="M0 0 C1.03 0.01 1.03 0.01 2.08 0.02 C2.79 0.02 3.49 0.02 4.22 0.02 C5.71 0.03 7.2 0.03 8.69 0.05 C10.98 0.06 13.27 0.07 15.55 0.07 C17 0.07 18.45 0.08 19.89 0.08 C20.93 0.09 20.93 0.09 21.98 0.09 C26.8 0.14 26.8 0.14 27.92 1.25 C28.03 3.14 28.07 5.04 28.08 6.93 C28.09 8.15 28.1 9.36 28.11 10.61 C28.12 11.95 28.12 13.29 28.12 14.63 C28.13 16 28.13 17.37 28.14 18.74 C28.15 21.62 28.16 24.5 28.16 27.38 C28.17 31.05 28.19 34.72 28.22 38.4 C28.24 41.23 28.24 44.06 28.24 46.9 C28.25 48.9 28.27 50.91 28.29 52.92 C28.27 60.63 28.14 67.24 23.12 73.49 C16.91 78.69 11.38 80.72 3.25 80.5 C-4.03 79.72 -9.41 76.72 -15.08 72.25 C-13.59 67.66 -11.23 64.82 -8.08 61.25 C-5.08 62.25 -5.08 62.25 -3.39 64.25 C-0.19 67.02 2.75 67.35 6.92 67.25 C9.33 66.6 9.33 66.6 10.92 65.25 C12.15 62.79 12.04 61.19 12.03 58.44 C12.03 56.93 12.03 56.93 12.03 55.4 C12.03 54.32 12.02 53.24 12.02 52.12 C12.02 51.01 12.01 49.91 12.01 48.76 C12.01 45.22 12 41.67 11.98 38.13 C11.98 35.73 11.97 33.33 11.97 30.93 C11.96 25.04 11.94 19.14 11.92 13.25 C10.72 13.19 9.51 13.13 8.27 13.07 C6.7 12.98 5.12 12.9 3.55 12.81 C2.75 12.78 1.96 12.74 1.14 12.7 C-4.85 12.37 -4.85 12.37 -7.08 11.25 C-7.13 9.79 -7.17 8.34 -7.2 6.88 C-7.23 6.07 -7.25 5.25 -7.28 4.42 C-6.86 -0.2 -3.93 0.02 0 0 Z " fill="#FF6F76" transform="translate(753.0798492431641,768.7477569580078)"/>
<path d="M0 0 C1.07 -0.01 2.15 -0.01 3.26 -0.02 C5 -0.01 5 -0.01 6.79 -0.01 C7.98 -0.01 9.17 -0.01 10.39 -0.01 C12.92 -0.01 15.44 -0.01 17.96 -0 C21.83 0.01 25.7 -0 29.57 -0.01 C32.02 -0.01 34.46 -0.01 36.91 -0.01 C38.07 -0.01 39.24 -0.01 40.44 -0.02 C42.05 -0.01 42.05 -0.01 43.7 0 C45.12 0 45.12 0 46.57 0 C48.85 0.26 48.85 0.26 50.85 2.26 C50.85 5.56 50.85 8.86 50.85 12.26 C43.59 12.59 36.33 12.92 28.85 13.26 C28.52 35.04 28.19 56.82 27.85 79.26 C23.56 79.26 19.27 79.26 14.85 79.26 C13.03 77.44 13.68 74.62 13.64 72.18 C13.62 70.88 13.6 69.58 13.58 68.24 C13.56 66.8 13.55 65.37 13.53 63.94 C13.51 62.49 13.49 61.03 13.47 59.57 C13.41 55.74 13.36 51.9 13.32 48.06 C13.27 44.14 13.21 40.23 13.15 36.32 C13.05 28.63 12.95 20.94 12.85 13.26 C11.57 13.2 10.3 13.14 8.98 13.08 C7.31 12.99 5.64 12.91 3.97 12.82 C3.13 12.78 2.29 12.74 1.42 12.7 C0.62 12.66 -0.19 12.62 -1.02 12.58 C-2.13 12.52 -2.13 12.52 -3.27 12.46 C-5.15 12.26 -5.15 12.26 -7.15 11.26 C-7.21 9.8 -7.25 8.34 -7.28 6.88 C-7.31 5.67 -7.31 5.67 -7.35 4.42 C-6.93 -0.25 -3.91 0.01 0 0 Z " fill="#FF6F76" transform="translate(113.15234375,747.7412109375)"/>
<path d="M0 0 C0.86 0 1.72 0 2.61 0 C3.96 0.03 3.96 0.03 5.33 0.05 C6.21 0.05 7.09 0.04 8 0.04 C19.89 0.14 19.89 0.14 24.54 3.98 C25.01 4.58 25.47 5.18 25.95 5.8 C26.44 6.4 26.92 6.99 27.41 7.61 C30.5 12.26 30.49 18.02 29.58 23.36 C27.68 26.54 25.48 29.07 22.58 31.36 C21.92 31.36 21.26 31.36 20.58 31.36 C23.33 38.18 26.2 44.82 29.66 51.3 C30.58 53.36 30.58 53.36 30.58 56.36 C27.46 56.85 24.69 57.01 21.58 56.36 C19.09 54.17 17.97 51.34 16.58 48.36 C15.96 47.17 15.35 45.98 14.72 44.79 C9.58 34.84 9.58 34.84 9.58 32.36 C7.6 33.02 5.62 33.68 3.58 34.36 C3.25 41.62 2.92 48.88 2.58 56.36 C-5.42 56.36 -5.42 56.36 -7.42 55.36 C-7.5 48.01 -7.55 40.66 -7.59 33.31 C-7.6 30.81 -7.62 28.31 -7.65 25.81 C-7.68 22.21 -7.7 18.62 -7.71 15.03 C-7.74 13.35 -7.74 13.35 -7.76 11.63 C-7.76 10.07 -7.76 10.07 -7.76 8.48 C-7.77 7.56 -7.78 6.64 -7.78 5.7 C-7.06 1.03 -4.38 -0.02 0 0 Z " fill="#FF6F76" transform="translate(378.421875,945.63671875)"/>
<path d="M0 0 C3.44 0.19 3.44 0.19 4.44 1.19 C4.53 3.03 4.55 4.87 4.55 6.72 C4.55 7.9 4.55 9.08 4.55 10.3 C4.55 11.58 4.54 12.87 4.54 14.19 C4.53 15.5 4.53 16.81 4.53 18.16 C4.53 21.64 4.52 25.12 4.51 28.61 C4.5 32.16 4.49 35.71 4.49 39.26 C4.48 46.24 4.46 53.21 4.44 60.19 C-3.29 60.34 -3.29 60.34 -5.75 59 C-6.35 58.73 -6.95 58.46 -7.56 58.19 C-8.28 58.66 -9.01 59.14 -9.75 59.62 C-13.27 61.58 -15.31 61.49 -19.21 60.89 C-24.75 59.24 -28.45 55.89 -31.56 51.12 C-34.17 43.29 -33.42 35.11 -30.19 27.62 C-27.33 22.51 -24.56 20.27 -18.96 18.6 C-14.06 17.76 -10.84 18.99 -6.56 21.19 C-6.54 20.62 -6.52 20.06 -6.5 19.48 C-6.41 16.92 -6.3 14.37 -6.19 11.81 C-6.16 10.92 -6.13 10.03 -6.09 9.12 C-6.06 8.27 -6.02 7.42 -5.98 6.54 C-5.95 5.75 -5.91 4.97 -5.88 4.16 C-5.26 0.31 -3.68 0.19 0 0 Z " fill="#FF6F76" transform="translate(503.5625,941.8125)"/>
<path d="M0 0 C4.31 2.17 7.24 4.33 9.19 8.91 C8.86 12.92 7.35 14.22 4.48 16.88 C2.94 17.98 2.94 17.98 0.94 17.98 C0.94 17.32 0.94 16.66 0.94 15.98 C-0.05 15.65 -1.04 15.32 -2.06 14.98 C-3.08 14 -4.08 13 -5.06 11.98 C-9.65 9.68 -15.62 10.54 -20.37 11.98 C-25.31 15.65 -28.07 20.33 -29.06 26.41 C-29.32 31.35 -28.59 35.69 -26.06 39.98 C-22.22 44.01 -18.04 45.3 -12.56 45.6 C-7.63 45.4 -4.53 44 -0.62 41.07 C0.94 39.98 0.94 39.98 2.94 39.98 C4.45 41.95 4.45 41.95 6.07 44.48 C6.61 45.31 7.14 46.15 7.7 47.01 C8.11 47.66 8.52 48.31 8.94 48.98 C1.93 55.79 -3.05 58.01 -12.93 58.29 C-23.36 58.09 -30.53 55.34 -38.06 47.98 C-44.35 39.81 -44.78 32.01 -44.06 21.98 C-42.15 13.71 -38.08 7.6 -31.02 2.99 C-21.07 -2.75 -10.91 -4.3 0 0 Z " fill="#FF6F76" transform="translate(971.05859375,770.0234375)"/>
<path d="M0 0 C2.16 0.02 2.16 0.02 4.62 0.38 C5.44 0.49 6.26 0.6 7.1 0.71 C7.73 0.81 8.35 0.9 9 1 C8.67 1.66 8.34 2.32 8 3 C7.88 4.82 7.82 6.64 7.79 8.46 C7.77 9.6 7.75 10.74 7.73 11.92 C7.71 13.77 7.71 13.77 7.68 15.66 C7.66 16.93 7.64 18.19 7.62 19.49 C7.57 22.85 7.52 26.2 7.47 29.56 C7.42 32.99 7.36 36.41 7.31 39.84 C7.2 46.56 7.1 53.28 7 60 C5.74 60.04 4.48 60.08 3.19 60.12 C2.48 60.15 1.77 60.17 1.04 60.2 C-1 60 -1 60 -4 58 C-4.62 58.52 -5.24 59.03 -5.88 59.56 C-10.49 61.69 -14.18 61.53 -19 60 C-23.48 57.13 -26.97 53.85 -29.56 49.19 C-30.86 39.74 -30.15 32.54 -25.44 24.25 C-21.78 20.87 -17.85 19.09 -13 18 C-9.35 18.25 -6.28 19.36 -3 21 C-2.98 20.43 -2.96 19.87 -2.94 19.29 C-2.84 16.73 -2.74 14.18 -2.62 11.62 C-2.59 10.74 -2.56 9.85 -2.53 8.93 C-2.49 8.08 -2.45 7.23 -2.41 6.35 C-2.38 5.57 -2.35 4.78 -2.32 3.97 C-2 2 -2 2 0 0 Z " fill="#FF6F76" transform="translate(799,942)"/>
<path d="M0 0 C6 4 8.51 8.43 10.19 15.44 C12.15 26.4 12.44 39.66 7.62 49.94 C7.09 50.62 6.55 51.3 6 52 C5.48 52.76 4.97 53.53 4.44 54.31 C0.5 57.04 -3.38 56.81 -8 56 C-12.47 54.12 -14.59 51.76 -16.88 47.5 C-20.56 36.04 -21.26 20.05 -16 9 C-12.55 2.46 -7.63 -1.27 0 0 Z " fill="#102D54" transform="translate(580,760)"/>
<path d="M0 0 C1.03 0 2.06 0.01 3.12 0.01 C4.24 0.01 5.36 0.02 6.51 0.02 C8.26 0.04 8.26 0.04 10.06 0.06 C11.23 0.06 12.41 0.06 13.62 0.06 C22.35 0.1 22.35 0.1 23.49 1.24 C23.62 2.62 23.67 4.01 23.7 5.4 C23.72 6.28 23.74 7.16 23.76 8.06 C23.78 9.02 23.79 9.98 23.81 10.97 C23.83 11.94 23.85 12.92 23.87 13.92 C23.94 17.05 24 20.18 24.06 23.31 C24.1 25.42 24.14 27.54 24.19 29.65 C24.29 34.85 24.4 40.05 24.49 45.24 C25.67 45.33 25.67 45.33 26.86 45.43 C27.88 45.51 28.89 45.59 29.93 45.68 C30.94 45.76 31.95 45.84 32.99 45.93 C35.49 46.24 35.49 46.24 36.49 47.24 C36.57 49.1 36.58 50.95 36.56 52.81 C36.55 53.82 36.54 54.83 36.53 55.87 C36.52 56.65 36.51 57.44 36.49 58.24 C30.67 58.27 24.85 58.29 19.03 58.3 C17.05 58.3 15.07 58.31 13.09 58.32 C10.24 58.33 7.4 58.34 4.56 58.34 C3.22 58.35 3.22 58.35 1.86 58.36 C-0.26 58.36 -2.39 58.31 -4.51 58.24 C-6.38 56.37 -5.74 53.75 -5.83 51.25 C-5.51 49.24 -5.51 49.24 -2.51 46.24 C1.12 46.24 4.75 46.24 8.49 46.24 C8.16 35.35 7.83 24.46 7.49 13.24 C4.19 12.91 0.89 12.58 -2.51 12.24 C-3.17 11.91 -3.83 11.58 -4.51 11.24 C-4.56 9.78 -4.6 8.33 -4.63 6.87 C-4.67 5.65 -4.67 5.65 -4.7 4.41 C-4.4 1.08 -3.25 0.32 0 0 Z " fill="#FF6F76" transform="translate(874.506103515625,768.757080078125)"/>
<path d="M0 0 C4.68 5.46 6.18 10.87 6 18 C5.54 23.86 3.93 28.27 -0.17 32.55 C-4.68 36.12 -9.81 37.31 -15.5 37.06 C-21.52 36.11 -26.79 32.63 -30.68 28 C-34.07 22.87 -34.44 17.48 -33.66 11.56 C-32.04 5.26 -28.32 0.56 -22.94 -3 C-14.77 -7.46 -7.09 -5.98 0 0 Z " fill="#FF6F76" transform="translate(1003,966)"/>
<path d="M0 0 C4.68 5.46 6.18 10.87 6 18 C5.54 23.86 3.93 28.27 -0.17 32.55 C-4.68 36.12 -9.81 37.31 -15.5 37.06 C-21.52 36.11 -26.79 32.63 -30.68 28 C-34.07 22.87 -34.44 17.48 -33.66 11.56 C-32.04 5.26 -28.32 0.56 -22.94 -3 C-14.77 -7.46 -7.09 -5.98 0 0 Z " fill="#FF6F76" transform="translate(603,966)"/>
<path d="M0 0 C3.44 0.19 3.44 0.19 4.44 1.19 C4.59 2.75 4.69 4.31 4.75 5.88 C4.82 7.3 4.82 7.3 4.88 8.74 C4.92 9.73 4.96 10.73 5 11.75 C5.04 12.75 5.09 13.74 5.13 14.77 C5.24 17.24 5.34 19.72 5.44 22.19 C11.05 22.52 16.66 22.85 22.44 23.19 C22.41 21.69 22.39 20.2 22.37 18.66 C22.35 16.71 22.33 14.76 22.31 12.81 C22.29 11.34 22.29 11.34 22.26 9.83 C22.26 8.89 22.25 7.95 22.24 6.98 C22.23 6.11 22.22 5.24 22.21 4.34 C22.44 2.19 22.44 2.19 24.44 0.19 C28.06 0.06 28.06 0.06 31.44 0.19 C32.24 3.69 32.54 6.85 32.46 10.44 C32.44 11.46 32.42 12.48 32.4 13.53 C32.36 15.16 32.36 15.16 32.32 16.83 C32.28 18.52 32.28 18.52 32.24 20.24 C32.17 23.83 32.08 27.41 32 31 C31.95 33.43 31.89 35.87 31.84 38.3 C31.71 44.26 31.58 50.23 31.44 56.19 C25.29 56.29 25.29 56.29 23.44 56.19 C21.75 54.5 22.21 52.37 22.12 50.06 C22.08 49.02 22.04 47.99 21.99 46.92 C21.95 45.84 21.92 44.75 21.88 43.62 C21.83 42.53 21.79 41.44 21.74 40.31 C21.64 37.61 21.54 34.9 21.44 32.19 C18.96 32.16 16.48 32.14 14 32.12 C12.94 32.11 12.94 32.11 11.86 32.1 C10.05 32.09 8.24 32.14 6.44 32.19 C4.75 33.87 5.21 36.01 5.12 38.32 C5.08 39.35 5.04 40.39 4.99 41.45 C4.95 42.54 4.92 43.63 4.88 44.75 C4.83 45.84 4.79 46.93 4.74 48.06 C4.64 50.77 4.54 53.48 4.44 56.19 C-3.31 56.31 -3.31 56.31 -5.56 55.19 C-5.61 47.68 -5.65 40.16 -5.67 32.65 C-5.68 30.1 -5.7 27.54 -5.71 24.98 C-5.74 21.31 -5.75 17.65 -5.76 13.98 C-5.77 12.83 -5.78 11.68 -5.79 10.49 C-5.79 9.43 -5.79 8.37 -5.79 7.28 C-5.79 6.34 -5.8 5.41 -5.8 4.44 C-5.37 0.39 -3.88 0.2 0 0 Z " fill="#FF6F76" transform="translate(176.5625,945.8125)"/>
<path d="M0 0 C6.26 6.44 6.22 13.33 6.18 21.86 C6.16 23.04 6.14 24.22 6.12 25.44 C6.12 26.65 6.11 27.85 6.1 29.1 C6.07 32.07 6.04 35.03 6 38 C4.4 38.05 2.79 38.09 1.19 38.12 C0.29 38.15 -0.6 38.17 -1.52 38.2 C-4 38 -4 38 -7 36 C-7.76 36.52 -8.53 37.03 -9.31 37.56 C-14.44 39.56 -18.67 39.17 -24 38 C-27.28 36.33 -29.22 35.02 -31.44 32.12 C-32.57 27.85 -31.37 24.73 -29.44 20.88 C-25.74 16.52 -21.34 14.78 -16 13 C-14.11 12.93 -12.21 12.92 -10.31 12.94 C-9.32 12.95 -8.32 12.96 -7.3 12.96 C-6.16 12.98 -6.16 12.98 -5 13 C-6.53 8.19 -6.53 8.19 -10 5 C-14.81 4.57 -16.96 5.55 -21 8 C-24.1 7.73 -25.33 6.78 -28 5 C-27.73 3.14 -27.73 3.14 -27 1 C-19.28 -4.68 -7.81 -6.25 0 0 Z " fill="#FE6E75" transform="translate(452,964)"/>
<path d="M0 0 C4.44 4.03 6.45 7.89 7.01 13.81 C7.08 17.69 7.04 21.55 6.94 25.44 C6.92 26.8 6.9 28.16 6.88 29.52 C6.84 32.83 6.77 36.13 6.69 39.44 C5.25 39.49 3.81 39.53 2.38 39.56 C1.57 39.59 0.77 39.61 -0.05 39.63 C-2.31 39.44 -2.31 39.44 -5.31 37.44 C-6.95 38.21 -8.59 38.97 -10.22 39.75 C-14.97 41.32 -19.96 40.47 -24.47 38.49 C-27.96 36.33 -29.13 34.98 -30.44 31 C-30.29 26.82 -29.7 24.87 -27.31 21.44 C-20.04 14.8 -12.84 14.13 -3.31 14.44 C-4.84 9.63 -4.84 9.63 -8.31 6.44 C-13.39 6.05 -13.39 6.05 -17.94 8.06 C-20.31 9.44 -20.31 9.44 -23 8.88 C-25.59 7.26 -26.1 6.15 -27.31 3.44 C-25.75 2.62 -24.19 1.81 -22.62 1 C-21.75 0.55 -20.88 0.1 -19.99 -0.37 C-13.25 -3.37 -6.63 -3.13 0 0 Z " fill="#FF6F76" transform="translate(251.3125,962.5625)"/>
<path d="M0 0 C4.44 4.03 6.45 7.89 7.01 13.81 C7.08 17.69 7.04 21.55 6.94 25.44 C6.92 26.8 6.9 28.16 6.88 29.52 C6.84 32.83 6.77 36.13 6.69 39.44 C5.25 39.49 3.81 39.53 2.38 39.56 C1.57 39.59 0.77 39.61 -0.05 39.63 C-2.31 39.44 -2.31 39.44 -5.31 37.44 C-6.08 37.95 -6.84 38.47 -7.62 39 C-12.77 41.01 -16.98 40.7 -22.31 39.44 C-26.44 37.62 -28.78 35.79 -30.44 31.56 C-30.25 26.92 -29.21 23.25 -25.76 19.95 C-18.61 14.56 -12.04 14.16 -3.31 14.44 C-4.84 9.63 -4.84 9.63 -8.31 6.44 C-13.39 6.05 -13.39 6.05 -17.94 8.06 C-20.31 9.44 -20.31 9.44 -23 8.88 C-25.59 7.26 -26.1 6.15 -27.31 3.44 C-25.75 2.62 -24.19 1.81 -22.62 1 C-21.75 0.55 -20.88 0.1 -19.99 -0.37 C-13.25 -3.37 -6.63 -3.13 0 0 Z " fill="#FF6F76" transform="translate(700.3125,962.5625)"/>
<path d="M0 0 C2.02 0.95 4.03 1.95 6 3 C8 2.9 8 2.9 10 2 C13.44 0.69 13.44 0.69 17 0 C19.85 1.74 21.5 3.01 23 6 C23.09 8.7 23.12 11.37 23.1 14.07 C23.1 14.87 23.09 15.66 23.09 16.48 C23.09 19.03 23.08 21.58 23.06 24.12 C23.06 25.85 23.05 27.58 23.05 29.3 C23.04 33.53 23.02 37.77 23 42 C20.67 42.04 18.33 42.04 16 42 C14.05 40.05 14.75 36.35 14.68 33.68 C14.66 32.95 14.64 32.22 14.62 31.47 C14.56 29.12 14.5 26.78 14.44 24.44 C14.39 22.85 14.35 21.27 14.31 19.68 C14.2 15.79 14.1 11.89 14 8 C10.77 8.72 10.77 8.72 9.36 11.72 C7.14 17.37 7.43 23.46 7.31 29.44 C7.28 30.65 7.24 31.85 7.21 33.1 C7.13 36.07 7.06 39.03 7 42 C5 42.04 3 42.04 1 42 C-0.84 40.16 -0.22 37.17 -0.28 34.7 C-0.32 33.41 -0.36 32.12 -0.39 30.8 C-0.43 29.43 -0.47 28.06 -0.5 26.69 C-0.57 24.02 -0.64 21.36 -0.72 18.7 C-0.75 17.51 -0.78 16.32 -0.81 15.1 C-0.97 12.56 -1.26 10.42 -2 8 C-5.01 8.68 -5.01 8.68 -6.16 10.64 C-7.26 13.73 -7.33 16.46 -7.41 19.73 C-7.47 21.68 -7.47 21.68 -7.53 23.66 C-7.56 25.02 -7.59 26.39 -7.62 27.75 C-7.66 29.13 -7.7 30.51 -7.74 31.89 C-7.84 35.26 -7.92 38.63 -8 42 C-10.33 42.04 -12.67 42.04 -15 42 C-17.07 39.93 -16.16 35.51 -16.17 32.66 C-16.17 31.82 -16.17 30.99 -16.18 30.12 C-16.18 28.35 -16.19 26.57 -16.19 24.8 C-16.19 22.08 -16.21 19.36 -16.22 16.63 C-16.23 14.91 -16.23 13.19 -16.23 11.47 C-16.24 10.65 -16.24 9.84 -16.25 8.99 C-16.23 3.23 -16.23 3.23 -14 1 C-12.01 1.09 -12.01 1.09 -9.69 1.5 C-5.92 2.04 -5.92 2.04 -2.31 0.88 C-1.55 0.59 -0.79 0.3 0 0 Z " fill="#FF6F76" transform="translate(286,960)"/>
<path d="M0 0 C4.39 5.29 5.13 9.35 5.1 16.07 C5.1 16.76 5.09 17.44 5.09 18.15 C5.09 20.33 5.08 22.51 5.06 24.69 C5.06 26.17 5.05 27.65 5.05 29.13 C5.04 32.75 5.02 36.38 5 40 C-1.15 40.1 -1.15 40.1 -3 40 C-4.71 38.29 -4.17 36.02 -4.21 33.68 C-4.24 32.59 -4.27 31.49 -4.3 30.37 C-4.35 28.06 -4.39 25.76 -4.43 23.45 C-4.6 17.24 -5.02 12.5 -8 7 C-11.12 7.49 -14 8 -17 9 C-18.75 13.04 -19.28 16.69 -19.41 21.05 C-19.47 22.72 -19.47 22.72 -19.53 24.41 C-19.56 25.56 -19.59 26.7 -19.62 27.88 C-19.68 29.62 -19.68 29.62 -19.74 31.41 C-19.84 34.27 -19.92 37.14 -20 40 C-27.75 40.12 -27.75 40.12 -30 39 C-30.05 33.62 -30.09 28.25 -30.11 22.87 C-30.12 21.05 -30.13 19.22 -30.15 17.39 C-30.18 14.76 -30.19 12.13 -30.2 9.51 C-30.21 8.69 -30.22 7.87 -30.23 7.02 C-30.23 5.01 -30.12 3 -30 1 C-28 -1 -28 -1 -24.56 -1.38 C-21 -1 -21 -1 -19.06 1 C-18.71 1.66 -18.36 2.32 -18 3 C-17.09 2.36 -16.18 1.72 -15.25 1.06 C-9.91 -2.33 -5.79 -2.64 0 0 Z " fill="#FF6F76" transform="translate(752,962)"/>
<path d="M0 0 C2.9 2.59 4.76 5.28 6 9 C6.08 11.36 6.11 13.72 6.1 16.07 C6.1 16.76 6.09 17.44 6.09 18.15 C6.09 20.33 6.08 22.51 6.06 24.69 C6.06 26.17 6.05 27.65 6.05 29.13 C6.04 32.75 6.02 36.38 6 40 C-1.75 40.12 -1.75 40.12 -4 39 C-4.02 38.14 -4.04 37.27 -4.06 36.39 C-4.14 33.18 -4.22 29.98 -4.32 26.77 C-4.36 25.39 -4.39 24 -4.42 22.62 C-4.47 20.62 -4.53 18.63 -4.59 16.64 C-4.63 14.84 -4.63 14.84 -4.68 13 C-4.78 9.82 -4.78 9.82 -7 7 C-12.29 7.29 -12.29 7.29 -16.38 10.44 C-18.75 14.18 -19.16 16.24 -19.32 20.66 C-19.36 21.79 -19.4 22.91 -19.44 24.06 C-19.5 25.83 -19.5 25.83 -19.56 27.62 C-19.61 28.81 -19.65 29.99 -19.69 31.21 C-19.8 34.14 -19.9 37.07 -20 40 C-26.15 40.1 -26.15 40.1 -28 40 C-30.07 37.93 -29.16 33.51 -29.17 30.66 C-29.17 29.82 -29.17 28.99 -29.18 28.12 C-29.18 26.35 -29.19 24.57 -29.19 22.8 C-29.19 20.08 -29.21 17.36 -29.22 14.63 C-29.23 12.91 -29.23 11.19 -29.23 9.47 C-29.24 8.65 -29.24 7.84 -29.25 6.99 C-29.23 1.23 -29.23 1.23 -27 -1 C-23.88 -1.12 -23.88 -1.12 -21 -1 C-20.34 0.65 -19.68 2.3 -19 4 C-18.47 3.65 -17.94 3.3 -17.39 2.94 C-16.33 2.26 -16.33 2.26 -15.25 1.56 C-14.55 1.11 -13.86 0.66 -13.14 0.19 C-8.29 -2.51 -5.17 -2.09 0 0 Z " fill="#FF6F76" transform="translate(1050,962)"/>
<path d="M0 0 C2 3 2 3 1.81 4.94 C0.88 7.31 -0.39 9.04 -2 11 C-2.78 10.2 -3.57 9.39 -4.38 8.56 C-8.07 4.96 -9.9 4.87 -15.03 4.77 C-17.32 4.89 -17.32 4.89 -20 7 C-20.33 7.99 -20.66 8.98 -21 10 C-20.09 10.26 -20.09 10.26 -19.16 10.52 C-2.62 15.3 -2.62 15.3 1.62 19.75 C3.44 24.04 3.59 26.36 3 31 C0.82 34.59 -1.17 36.4 -5 38 C-15.21 39.99 -23.3 38.55 -32 33 C-31.37 30.07 -30.41 27.64 -29 25 C-24.25 26.85 -24.25 26.85 -22.25 28.06 C-19.18 29.34 -16.57 29.19 -13.25 29.12 C-12.08 29.11 -10.91 29.09 -9.7 29.07 C-8.81 29.05 -7.92 29.02 -7 29 C-6.85 26.59 -6.85 26.59 -8 24 C-10.58 22.38 -13.39 21.44 -16.25 20.44 C-28.32 16.05 -28.32 16.05 -31 11.19 C-31 7.64 -30 4.87 -28 2 C-19.67 -5.03 -9.32 -5.91 0 0 Z " fill="#FF6F76" transform="translate(1103,964)"/>
<path d="M0 0 C4.03 3.04 6.07 6.38 8 11 C8.28 13.79 8.42 16.29 8.38 19.06 C8.39 19.76 8.4 20.45 8.41 21.17 C8.38 25.65 7.64 28.39 5 32 C4.5 32.76 4.01 33.53 3.5 34.31 C-0.67 37.13 -5.14 36.7 -10 36 C-13.87 33.98 -15.95 31.37 -17.49 27.25 C-19.07 20.31 -19.12 13.27 -15.81 6.88 C-11.9 0.92 -7.09 -1.53 0 0 Z " fill="#102D54" transform="translate(203,780)"/>
<path d="M0 0 C4.27 0.4 6.49 0.74 9.95 3.46 C15.09 10.16 15.76 17.87 15.01 26.15 C13.25 35.07 13.25 35.07 10.02 37.9 C5.84 40.51 1.88 40.34 -2.99 40.15 C-5.03 38.11 -4.15 33.84 -4.16 31.03 C-4.16 30.22 -4.16 29.4 -4.17 28.56 C-4.17 26.83 -4.17 25.11 -4.17 23.38 C-4.18 20.73 -4.19 18.08 -4.21 15.43 C-4.22 13.76 -4.22 12.08 -4.22 10.41 C-4.23 9.61 -4.23 8.81 -4.24 7.99 C-4.21 0.32 -4.21 0.32 0 0 Z " fill="#102D54" transform="translate(883.98828125,953.84765625)"/>
<path d="M0 0 C1.47 0 2.94 0.02 4.4 0.04 C5.15 0.04 5.89 0.04 6.66 0.04 C12.2 0.09 12.2 0.09 13.34 1.23 C13.5 3.52 13.59 5.81 13.66 8.11 C13.68 8.8 13.7 9.48 13.72 10.19 C13.78 12.39 13.84 14.59 13.9 16.79 C13.95 18.28 13.99 19.77 14.03 21.26 C14.14 24.92 14.24 28.57 14.34 32.23 C16.29 32.42 16.29 32.42 18.28 32.61 C20.49 32.82 20.49 32.82 22.34 33.23 C23.69 35.94 23.4 38.24 23.34 41.23 C19.23 41.26 15.12 41.27 11 41.29 C9.6 41.29 8.21 41.3 6.81 41.31 C4.8 41.32 2.79 41.32 0.78 41.33 C-0.43 41.33 -1.64 41.34 -2.88 41.34 C-5.66 41.23 -5.66 41.23 -6.66 40.23 C-6.85 37.79 -6.85 37.79 -6.66 35.23 C-4.66 33.23 -4.66 33.23 -2.71 33.04 C-0.7 33.1 1.32 33.17 3.34 33.23 C3.37 29.63 3.39 26.02 3.4 22.42 C3.41 21.39 3.42 20.37 3.43 19.31 C3.43 18.33 3.43 17.35 3.44 16.34 C3.44 15.43 3.45 14.52 3.45 13.59 C3.44 11.08 3.44 11.08 2.34 8.23 C0.64 8.26 0.64 8.26 -1.1 8.29 C-4.66 8.23 -4.66 8.23 -5.66 7.23 C-5.85 4.79 -5.85 4.79 -5.66 2.23 C-3.66 0.23 -3.66 0.23 0 0 Z " fill="#FF6F76" transform="translate(530.66015625,960.76953125)"/>
<path d="M0 0 C2.94 2.25 2.94 2.25 5 5 C5 8.87 3.46 11.11 1 14 C1 13.01 1 12.02 1 11 C-2.86 8.95 -5.85 8.72 -10.07 9.39 C-13.32 10.42 -14.97 12.35 -17 15 C-18.01 18.05 -18.19 21 -18.32 24.2 C-18.36 25.18 -18.4 26.16 -18.44 27.17 C-18.5 28.7 -18.5 28.7 -18.56 30.25 C-18.61 31.28 -18.65 32.31 -18.69 33.38 C-18.8 35.92 -18.9 38.46 -19 41 C-25.15 41.1 -25.15 41.1 -27 41 C-29.07 38.93 -28.16 34.51 -28.17 31.66 C-28.17 30.82 -28.17 29.99 -28.18 29.12 C-28.18 27.35 -28.19 25.57 -28.19 23.8 C-28.19 21.08 -28.21 18.36 -28.22 15.63 C-28.23 13.91 -28.23 12.19 -28.23 10.47 C-28.24 9.65 -28.24 8.84 -28.25 7.99 C-28.23 2.23 -28.23 2.23 -26 0 C-23.06 -0.44 -23.06 -0.44 -20 0 C-18.12 2.5 -18.12 2.5 -17 5 C-16.54 4.65 -16.08 4.3 -15.61 3.94 C-15 3.49 -14.38 3.03 -13.75 2.56 C-13.15 2.11 -12.54 1.66 -11.92 1.19 C-7.89 -1.31 -4.53 -1.29 0 0 Z " fill="#FF6F76" transform="translate(953,961)"/>
<path d="M0 0 C3.79 2.14 5.55 4.57 6.88 8.62 C7.64 13.55 7.74 17.92 4.94 22.19 C2.05 25.6 2.05 25.6 -0.02 25.9 C-4.49 26.09 -6.46 26.14 -10.12 23.31 C-13.28 19.07 -13.55 15.82 -13.12 10.62 C-11.69 6.16 -10.04 3.3 -6.25 0.5 C-3.12 -0.38 -3.12 -0.38 0 0 Z " fill="#102D54" transform="translate(992.125,968.375)"/>
<path d="M0 0 C3.79 2.14 5.55 4.57 6.88 8.62 C7.64 13.55 7.74 17.92 4.94 22.19 C2.05 25.6 2.05 25.6 -0.02 25.9 C-4.49 26.09 -6.46 26.14 -10.12 23.31 C-13.28 19.07 -13.55 15.82 -13.12 10.62 C-11.69 6.16 -10.04 3.3 -6.25 0.5 C-3.12 -0.38 -3.12 -0.38 0 0 Z " fill="#102D54" transform="translate(592.125,968.375)"/>
<path d="M0 0 C3.05 2.96 3.95 4.58 4.5 8.85 C4.5 10.25 4.48 11.66 4.44 13.06 C4.44 13.77 4.45 14.48 4.46 15.21 C4.42 18.34 4.17 20.67 2.71 23.46 C0.34 25.6 -1.88 25.61 -5 25.46 C-8.38 24.68 -9.95 22.67 -12 20 C-13.76 14.73 -13.43 10.39 -11.81 5.19 C-8.97 0.19 -5.65 -2.32 0 0 Z " fill="#102D54" transform="translate(792,969)"/>
<path d="M0 0 C3.01 2.87 4.25 5.02 4.5 9.1 C4.5 10.61 4.48 12.12 4.44 13.62 C4.44 14.39 4.45 15.15 4.46 15.94 C4.4 21.38 4.4 21.38 2.71 23.99 C-0.37 25.8 -3.61 25.71 -7 25 C-9.73 22.91 -11.44 21.29 -12.81 18.12 C-13.36 11.93 -13.09 7.55 -10 2 C-6.55 -0.91 -4.24 -1.74 0 0 Z " fill="#102D54" transform="translate(493,969)"/>
<path d="M0 0 C0.79 -0 1.58 -0.01 2.39 -0.01 C4.31 0.12 4.31 0.12 5.31 1.12 C5.36 5.5 4.81 9.19 2.75 13.06 C-1.62 16.76 -5.89 17.24 -11.5 16.88 C-14.69 16.12 -14.69 16.12 -17.69 14.12 C-18.62 12.38 -18.62 12.38 -18.69 10.12 C-16.2 5.25 -13.74 3.12 -8.69 1.12 C-5.73 0.24 -3.08 -0.01 0 0 Z " fill="#102D54" transform="translate(329.6875,799.875)"/>
<path d="M0 0 C1 1 1 1 1.05 2.86 C0.75 6.8 0.34 10.19 -1.94 13.5 C-6.13 16.92 -9.68 17.25 -15 17 C-18.31 16.1 -19.59 15.41 -22 13 C-21.92 8.91 -21.68 6.74 -18.88 3.69 C-12.89 0.17 -6.83 -0.63 0 0 Z " fill="#102D54" transform="translate(1089,800)"/>
<path d="M0 0 C2.75 3.03 3.85 5.09 4.5 9.12 C4 12 4 12 2.56 14.38 C-1.24 16.79 -4.62 16.89 -9 16 C-12.12 13.94 -12.12 13.94 -14 11 C-14.07 6.88 -13.67 4.83 -11.06 1.62 C-7.13 -1.47 -4.86 -1.26 0 0 Z " fill="#FF6F76" transform="translate(778,741)"/>
<path d="M0 0 C2.97 2.58 4.62 4.23 5.45 8.07 C5.62 11.24 5.43 13.43 3.5 16 C-0.04 17.42 -3.28 17.66 -7 17 C-10.16 15.18 -11.58 13.94 -13.06 10.62 C-12.97 6.82 -11.34 4.92 -9 2 C-5.47 -0.35 -4.15 -0.66 0 0 Z " fill="#FF6F76" transform="translate(894,740)"/>
<path d="M0 0 C3.82 0.09 5.02 0.32 8.31 2.5 C10.64 6.15 10.82 8.18 10.19 12.44 C9.04 14.13 9.04 14.13 7.19 15.44 C4.34 15.77 4.34 15.77 1.12 15.69 C0.06 15.67 -1 15.66 -2.1 15.64 C-4.81 15.44 -4.81 15.44 -6.81 14.44 C-6.87 12.48 -6.91 10.52 -6.94 8.56 C-6.96 7.47 -6.98 6.38 -7.01 5.26 C-6.67 0.38 -4.36 0.11 0 0 Z " fill="#102D54" transform="translate(387.8125,954.5625)"/>
<path d="M0 0 C3.93 3.04 5.02 6.12 6 11 C-1.92 11 -9.84 11 -18 11 C-16.82 5.08 -14.87 3.18 -10.19 -0.38 C-6.65 -1.39 -3.44 -1.17 0 0 Z " fill="#102D54" transform="translate(708,780)"/>
<path d="M0 0 C1.42 6.17 1.42 6.17 -0.25 9.44 C-4.56 11.88 -9.15 11.66 -14 11 C-14.66 10.34 -15.32 9.68 -16 9 C-15.94 6.56 -15.94 6.56 -15 4 C-10.12 0.3 -5.99 -0.14 0 0 Z " fill="#102D54" transform="translate(247,983)"/>
<path d="M0 0 C1.34 6.32 1.34 6.32 -0.09 9.22 C-2 11 -2 11 -4.92 11.39 C-6 11.34 -7.08 11.3 -8.19 11.25 C-9.27 11.21 -10.36 11.18 -11.48 11.14 C-12.73 11.07 -12.73 11.07 -14 11 C-14.66 9.68 -15.32 8.36 -16 7 C-10.92 1.49 -7.51 -0.35 0 0 Z " fill="#102D54" transform="translate(696,983)"/>
<path d="M0 0 C1 1 1 1 1.25 4.38 C1 8 1 8 -0.17 9.71 C-2.7 11.5 -4.49 11.33 -7.56 11.25 C-8.53 11.23 -9.5 11.22 -10.5 11.2 C-13 11 -13 11 -15 10 C-14.81 7.19 -14.81 7.19 -14 4 C-9.63 0.58 -5.46 -0.29 0 0 Z " fill="#102D54" transform="translate(446,983)"/>
<path d="M0 0 C2.32 2.16 2.94 3.47 3.31 6.62 C3 9 3 9 1 11 C-2.38 11.38 -2.38 11.38 -6 11 C-8.44 9 -8.44 9 -10 7 C-7.45 1.56 -6.32 -0.77 0 0 Z " fill="#FF6F76" transform="translate(542,941)"/>
</svg>
